# xmcd
#
# Track frame offsets:
#	150
#	19215
#	32424
#	46982
#	66563
#	82242
#	96423
#	109717
#	124535
#	139617
#	153235
#	167494
#
# Disc length: 2354 seconds
#
# Revision: 0
# Processed by: cddbd v1.5.2PL0 Copyright (c) Steve Scherf et al.
# Submitted via: dBpowerAMP V4.0
#
DISCID=9a09300c
DTITLE=Joanna Field - With you
DYEAR=2002
DGENRE=Country
TTITLE0=Turn the pencil
TTITLE1=Only cheat a little
TTITLE2=(Mama) If you could hold me again
TTITLE3=Dancing your memories away
TTITLE4=Here comes those lies again
TTITLE5=Love this time
TTITLE6=With you
TTITLE7=16th Avenue
TTITLE8=Lost the love on our last date
TTITLE9=Butterfly
TTITLE10=You don't have to say you love me
TTITLE11=I can't help it
EXTD=
EXTT0=
EXTT1=
EXTT2=
EXTT3=
EXTT4=
EXTT5=
EXTT6=
EXTT7=
EXTT8=
EXTT9=
EXTT10=
EXTT11=
PLAYORDER=
